<svg width="1949" height="2093" xmlns="http://www.w3.org/2000/svg" xmlns:xlink="http://www.w3.org/1999/xlink" xml:space="preserve" overflow="hidden"><g transform="translate(-1 -388)"><path d="M1.49987 388.5 765.5 388.5 765.5 2478.5 1.49987 2478.5Z" stroke="#000000" stroke-width="1.22703" stroke-miterlimit="8" fill="#E6E6E6" fill-rule="evenodd"/><path d="M1185.5 388.5 1949.5 388.5 1949.5 2478.5 1185.5 2478.5Z" stroke="#000000" stroke-width="1.22703" stroke-miterlimit="8" fill="#E6E6E6" fill-rule="evenodd"/><path d="M146.5 841.5 146.5 910.5 93.5 910.5" stroke="#000000" stroke-width="4.90814" stroke-linecap="square" stroke-miterlimit="8" fill="none" fill-rule="evenodd"/><path d="M1367.5 1796.5 1367.5 1966.5" stroke="#000000" stroke-width="4.90814" stroke-linecap="square" stroke-miterlimit="8" fill="none" fill-rule="evenodd"/><path d="M1367.5 2275.5 1367.5 2359.5" stroke="#000000" stroke-width="4.90814" stroke-linecap="square" stroke-miterlimit="8" fill="none" fill-rule="evenodd"/><path d="M1367.5 2015.5 1367.5 2091.5" stroke="#000000" stroke-width="4.90814" stroke-linecap="square" stroke-miterlimit="8" fill="none" fill-rule="evenodd"/><path d="M1560.5 1663.5 1560.5 1732.5 1864.5 1732.5" stroke="#000000" stroke-width="4.90814" stroke-linecap="square" stroke-miterlimit="8" fill="none" fill-rule="evenodd"/><path d="M216.226 816 216 1047.12C216 1062.52 228.486 1075 243.888 1075L869 1073.95" stroke="#000000" stroke-width="1.71785" stroke-miterlimit="8" fill="none" fill-rule="evenodd"/><path d="M869 936.45 435.875 937C420.481 937 408 930.475 408 922.423L408.226 838" stroke="#000000" stroke-width="1.71785" stroke-miterlimit="8" fill="none" fill-rule="evenodd"/><path d="M731 895.945 644.813 897C629.453 897 617 884.492 617 869.057L617.228 812" stroke="#000000" stroke-width="1.71785" stroke-miterlimit="8" fill="none" fill-rule="evenodd"/><path d="M355.5 2210.5 355.5 2354.5" stroke="#000000" stroke-width="4.90814" stroke-linecap="square" stroke-miterlimit="8" fill="none" fill-rule="evenodd"/><path d="M750 2338 452.817 2338C437.454 2338 425 2325.54 425 2310.16L425.226 2214" stroke="#000000" stroke-width="1.71785" stroke-miterlimit="8" fill="none" fill-rule="evenodd"/><path d="M581.5 1924.5 581.5 2074.5" stroke="#000000" stroke-width="4.90814" stroke-linecap="square" stroke-miterlimit="8" fill="none" fill-rule="evenodd"/><path d="M338.5 841.5 338.5 1004.5" stroke="#000000" stroke-width="4.90814" stroke-linecap="square" stroke-miterlimit="8" fill="none" fill-rule="evenodd"/><path d="M669.133 2372C684.526 2372 697 2384.54 697 2400.01L697 2413.99C697 2429.48 684.524 2442 669.133 2442L234.866 2442C219.476 2442 207 2429.48 207 2413.99L207 2400.01C207 2384.54 219.476 2372 234.866 2372L669.133 2372Z" stroke="#000000" stroke-width="1.71785" stroke-miterlimit="8" fill="#FFFFFF" fill-rule="evenodd"/><text font-family="Arial,Arial_MSFontService,sans-serif" font-weight="400" font-size="35" transform="matrix(1 0 0 1 228.75 2422)">NORMAAL EINDE CYCLUS</text><path d="M1716.13 2372C1731.53 2372 1744 2384.54 1744 2400.01L1744 2413.99C1744 2429.48 1731.53 2442 1716.13 2442L1281.87 2442C1266.48 2442 1254 2429.48 1254 2413.99L1254 2400.01C1254 2384.54 1266.48 2372 1281.87 2372L1716.13 2372Z" stroke="#000000" stroke-width="1.71785" stroke-miterlimit="8" fill="#FFFFFF" fill-rule="evenodd"/><text font-family="Arial,Arial_MSFontService,sans-serif" font-weight="400" font-size="35" transform="matrix(1 0 0 1 1272.64 2422)">NORMAAL EINDE CYCLUS</text><path d="M766 718.946 243.32 720C230.441 720 220 707.491 220 692.058L220.189 635 220.189 651.988" stroke="#000000" stroke-width="1.71785" stroke-miterlimit="8" fill="none" fill-rule="evenodd"/><path d="M669.103 770C684.513 770 697 782.535 697 797.999L697 812.002C697 827.465 684.513 840 669.103 840L94.895 840C79.4889 840 67 827.465 67 812.002L67 797.999C67 782.535 79.4889 770 94.895 770L669.103 770Z" stroke="#000000" stroke-width="1.71785" stroke-miterlimit="8" fill="#FFFFFF" fill-rule="evenodd"/><text font-family="Arial,Arial_MSFontService,sans-serif" font-weight="400" font-size="35" transform="matrix(1 0 0 1 96.3005 818)">Zoek in verwijsbestand</text><path d="M246.053 831C253.756 831 260 837.231 260 844.913L260 852.087C260 859.771 253.757 866 246.053 866L117.943 866C110.245 866 104 859.771 104 852.087L104 844.913C104 837.231 110.245 831 117.943 831L246.053 831Z" stroke="#000000" stroke-width="1.71785" stroke-miterlimit="8" fill="#FFFFFF" fill-rule="evenodd"/><text font-family="Arial,Arial_MSFontService,sans-serif" font-weight="400" font-size="24" transform="matrix(1 0 0 1 123.266 858)">Gevonden</text><path d="M438.056 831C445.756 831 452 837.231 452 844.913L452 852.087C452 859.771 445.756 866 438.056 866L309.944 866C302.243 866 296 859.771 296 852.087L296 844.913C296 837.231 302.243 831 309.944 831L438.056 831Z" stroke="#000000" stroke-width="1.71785" stroke-miterlimit="8" fill="#FFFFFF" fill-rule="evenodd"/><text font-family="Arial,Arial_MSFontService,sans-serif" font-weight="400" font-size="24" transform="matrix(1 0 0 1 314.674 858)">Niet aanw.</text><path d="M809 523.817 853 512 853 535Z" fill-rule="evenodd"/><path d="M1115 524.301 1158 513 1158 535Z" fill-rule="evenodd"/><path d="M372.5 584.5 372.5 751.5" stroke="#000000" stroke-width="4.90814" stroke-linecap="square" stroke-miterlimit="8" fill="none" fill-rule="evenodd"/><path d="M146.5 632.5 146.5 701.5 93.5 701.5" stroke="#000000" stroke-width="4.90814" stroke-linecap="square" stroke-miterlimit="8" fill="none" fill-rule="evenodd"/><path d="M575.723 1185.5 575.5 997.053C575.5 981.658 587.915 969.178 603.229 969.178L658.23 969.388 668.551 969.064 703.217 969.064C718.534 969.064 732.338 956.581 732.338 941.186L732.5 916.798 732.347 730.57C732.347 715.174 719.796 702.694 704.481 702.694L668.663 702.724 604.677 702.694C589.362 702.694 576.946 690.214 576.946 674.819L577.171 670.152 576.987 634.501 576.987 571.5" stroke="#000000" stroke-width="4.90814" stroke-miterlimit="8" fill="none" fill-rule="evenodd"/><path d="M853 657.303 809 646 809 668Z" fill-rule="evenodd"/><path d="M547.5 864.5 547.5 1004.5 93.5 1004.5" stroke="#000000" stroke-width="4.90814" stroke-linecap="square" stroke-miterlimit="8" fill="none" fill-rule="evenodd"/><path d="M853 1074.3 809 1063 809 1085Z" fill-rule="evenodd"/><path d="M750 1314.94 283.872 1315C268.477 1315 256 1302.49 256 1287.06L256.224 1230" stroke="#000000" stroke-width="1.71785" stroke-miterlimit="8" fill="none" fill-rule="evenodd"/><path d="M853 1213.3 809 1202 809 1224Z" fill-rule="evenodd"/><path d="M869 1353.94 165.873 1355C150.479 1355 138 1342.48 138 1327.02L138.226 1165" stroke="#000000" stroke-width="1.71785" stroke-miterlimit="8" fill="none" fill-rule="evenodd"/><path d="M853 1353.31 809 1342 809 1364Z" fill-rule="evenodd"/><path d="M222.5 1259.5 222.5 1484.5 59.5 1484.5" stroke="#000000" stroke-width="4.90814" stroke-linecap="square" stroke-miterlimit="8" fill="none" fill-rule="evenodd"/><path d="M640.5 1284.5 640.5 1693.5" stroke="#000000" stroke-width="4.90814" stroke-linecap="square" stroke-miterlimit="8" fill="none" fill-rule="evenodd"/><path d="M862 1626.82 819 1615 819 1638Z" fill-rule="evenodd"/><path d="M669.103 1153C684.513 1153 697 1165.54 697 1181L697 1195C697 1210.46 684.513 1223 669.103 1223L94.895 1223C79.4889 1223 67 1210.46 67 1195L67 1181C67 1165.54 79.4889 1153 94.895 1153L669.103 1153Z" stroke="#000000" stroke-width="1.71785" stroke-miterlimit="8" fill="#FFFFFF" fill-rule="evenodd"/><text font-family="Arial,Arial_MSFontService,sans-serif" font-weight="400" font-size="35" transform="matrix(1 0 0 1 96.3005 1201)">Onderzoek status van de PL</text><path d="M870.5 474.5 1081.5 474.5 1081.5 579.5 870.5 579.5Z" stroke="#000000" stroke-width="4.90814" stroke-miterlimit="8" fill="#FFFFFF" fill-rule="evenodd"/><text font-family="Arial,Arial_MSFontService,sans-serif" font-weight="400" font-size="30" transform="matrix(1 0 0 1 950.129 514)">Ii01</text><path d="M870 473.357 920.141 524 1030.5 524 1081 473" stroke="#000000" stroke-width="1.71785" stroke-miterlimit="8" fill="none" fill-rule="evenodd"/><path d="M870.5 609.5 1081.5 609.5 1081.5 714.5 870.5 714.5Z" stroke="#000000" stroke-width="4.90814" stroke-miterlimit="8" fill="#FFFFFF" fill-rule="evenodd"/><text font-family="Arial,Arial_MSFontService,sans-serif" font-weight="400" font-size="30" transform="matrix(1 0 0 1 949.529 649)">If01</text><text font-family="Arial,Arial_MSFontService,sans-serif" font-weight="400" font-size="30" transform="matrix(1 0 0 1 911.88 698)">Code "U"</text><path d="M870 608.359 920.141 659 1030.5 659 1081 608" stroke="#000000" stroke-width="1.71785" stroke-miterlimit="8" fill="none" fill-rule="evenodd"/><path d="M870.5 1023.5 1081.5 1023.5 1081.5 1129.5 870.5 1129.5Z" stroke="#000000" stroke-width="4.90814" stroke-miterlimit="8" fill="#FFFFFF" fill-rule="evenodd"/><path d="M870 1023.36 920.141 1073 1030.5 1073 1081 1023" stroke="#000000" stroke-width="1.71785" stroke-miterlimit="8" fill="none" fill-rule="evenodd"/><text font-family="Arial,Arial_MSFontService,sans-serif" font-weight="400" font-size="30" transform="matrix(1 0 0 1 949.529 1064)">If01</text><text font-family="Arial,Arial_MSFontService,sans-serif" font-weight="400" font-size="30" transform="matrix(1 0 0 1 912.694 1113)">Code "V"</text><path d="M853 794.305 809 783 809 805Z" fill-rule="evenodd"/><path d="M853 936.303 809 925 809 947Z" fill-rule="evenodd"/><path d="M870.5 745.5 1081.5 745.5 1081.5 850.5 870.5 850.5Z" stroke="#000000" stroke-width="4.90814" stroke-miterlimit="8" fill="#FFFFFF" fill-rule="evenodd"/><path d="M870 744.361 920.141 795 1030.5 795 1081 744" stroke="#000000" stroke-width="1.71785" stroke-miterlimit="8" fill="none" fill-rule="evenodd"/><text font-family="Arial,Arial_MSFontService,sans-serif" font-weight="400" font-size="30" transform="matrix(1 0 0 1 949.529 785)">If01</text><text font-family="Arial,Arial_MSFontService,sans-serif" font-weight="400" font-size="30" transform="matrix(1 0 0 1 911.88 834)">Code "U"</text><path d="M870.5 886.5 1081.5 886.5 1081.5 992.5 870.5 992.5Z" stroke="#000000" stroke-width="4.90814" stroke-miterlimit="8" fill="#FFFFFF" fill-rule="evenodd"/><path d="M870 885.355 920.141 936 1030.5 936 1081 885" stroke="#000000" stroke-width="1.71785" stroke-miterlimit="8" fill="none" fill-rule="evenodd"/><text font-family="Arial,Arial_MSFontService,sans-serif" font-weight="400" font-size="30" transform="matrix(1 0 0 1 949.795 927)">If01</text><text font-family="Arial,Arial_MSFontService,sans-serif" font-weight="400" font-size="30" transform="matrix(1 0 0 1 911.06 976)">Code "G"</text><path d="M870.5 1163.5 1081.5 1163.5 1081.5 1268.5 870.5 1268.5Z" stroke="#000000" stroke-width="4.90814" stroke-miterlimit="8" fill="#FFFFFF" fill-rule="evenodd"/><path d="M870 1162.36 920.141 1213 1030.5 1213 1081 1162" stroke="#000000" stroke-width="1.71785" stroke-miterlimit="8" fill="none" fill-rule="evenodd"/><text font-family="Arial,Arial_MSFontService,sans-serif" font-weight="400" font-size="30" transform="matrix(1 0 0 1 949.529 1203)">If01</text><text font-family="Arial,Arial_MSFontService,sans-serif" font-weight="400" font-size="30" transform="matrix(1 0 0 1 912.694 1252)">Code "B"</text><path d="M870.5 1304.5 1081.5 1304.5 1081.5 1410.5 870.5 1410.5Z" stroke="#000000" stroke-width="4.90814" stroke-miterlimit="8" fill="#FFFFFF" fill-rule="evenodd"/><path d="M870 1304.35 920.141 1354 1030.5 1354 1081 1304" stroke="#000000" stroke-width="1.71785" stroke-miterlimit="8" fill="none" fill-rule="evenodd"/><text font-family="Arial,Arial_MSFontService,sans-serif" font-weight="400" font-size="30" transform="matrix(1 0 0 1 949.795 1345)">If01</text><text font-family="Arial,Arial_MSFontService,sans-serif" font-weight="400" font-size="30" transform="matrix(1 0 0 1 911.06 1394)">Code "O"</text><path d="M669.15 562C684.531 562 697 574.535 697 589.999L697 604C697 619.467 684.531 632 669.15 632L95.8523 632C80.4712 632 68.0001 619.465 68.0001 604L68.0001 589.999C68.0001 574.535 80.4712 562 95.8523 562L669.15 562Z" stroke="#000000" stroke-width="1.71785" stroke-miterlimit="8" fill="#FFFFFF" fill-rule="evenodd"/><text font-family="Arial,Arial_MSFontService,sans-serif" font-weight="400" font-size="35" transform="matrix(1 0 0 1 96.5744 610)">Zoek persoonslijst in PL</text><text font-family="Arial,Arial_MSFontService,sans-serif" font-weight="400" font-size="35" transform="matrix(1 0 0 1 471.262 610)">-</text><text font-family="Arial,Arial_MSFontService,sans-serif" font-weight="400" font-size="35" transform="matrix(1 0 0 1 483.293 610)">bestand</text><path d="M438.056 622C445.756 622 452 628.231 452 635.914L452 643.086C452 650.769 445.756 657 438.056 657L309.944 657C302.243 657 296 650.769 296 643.086L296 635.914C296 628.231 302.243 622 309.944 622L438.056 622Z" stroke="#000000" stroke-width="1.71785" stroke-miterlimit="8" fill="#FFFFFF" fill-rule="evenodd"/><text font-family="Arial,Arial_MSFontService,sans-serif" font-weight="400" font-size="24" transform="matrix(1 0 0 1 314.674 649)">Niet aanw.</text><path d="M647.052 622C654.76 622 661 628.231 661 635.914L661 643.086C661 650.769 654.76 657 647.052 657L518.95 657C511.245 657 505 650.769 505 643.086L505 635.914C505 628.231 511.245 622 518.95 622L647.052 622Z" stroke="#000000" stroke-width="1.71785" stroke-miterlimit="8" fill="#FFFFFF" fill-rule="evenodd"/><text font-family="Arial,Arial_MSFontService,sans-serif" font-weight="400" font-size="24" transform="matrix(1 0 0 1 525.715 649)">Gevonden</text><path d="M246.053 622C253.756 622 260 628.231 260 635.914L260 643.086C260 650.769 253.757 657 246.053 657L117.943 657C110.245 657 104 650.769 104 643.086L104 635.914C104 628.231 110.245 622 117.943 622L246.053 622Z" stroke="#000000" stroke-width="1.71785" stroke-miterlimit="8" fill="#FFFFFF" fill-rule="evenodd"/><text font-family="Arial,Arial_MSFontService,sans-serif" font-weight="400" font-size="24" transform="matrix(1 0 0 1 124.209 649)">Niet uniek</text><path d="M816 2166.3 860 2155 860 2177Z" fill-rule="evenodd"/><path d="M675 1885.22 774.869 1885C790.255 1885 802.727 1897.44 802.727 1912.79L802.605 1927.5 802.605 1948.71 802.487 2002.64C802.487 2017.98 807.906 2034.29 830.344 2030.42L946 2030.21" stroke="#000000" stroke-width="1.71785" stroke-miterlimit="8" fill="none" fill-rule="evenodd"/><path d="M868 2294.3 825 2283 825 2305Z" fill-rule="evenodd"/><path d="M870 2421.3 826 2410 826 2432Z" fill-rule="evenodd"/><path d="M870.5 2246.5 1081.5 2246.5 1081.5 2352.5 870.5 2352.5Z" stroke="#000000" stroke-width="4.90814" stroke-miterlimit="8" fill="#FFFFFF" fill-rule="evenodd"/><path d="M870 2246.36 920.141 2296 1030.5 2296 1081 2246" stroke="#000000" stroke-width="1.71785" stroke-miterlimit="8" fill="none" fill-rule="evenodd"/><text font-family="Arial,Arial_MSFontService,sans-serif" font-weight="400" font-size="30" transform="matrix(1 0 0 1 949.529 2287)">If31</text><path d="M870.5 2372.5 1081.5 2372.5 1081.5 2478.5 870.5 2478.5Z" stroke="#000000" stroke-width="4.90814" stroke-miterlimit="8" fill="#FFFFFF" fill-rule="evenodd"/><path d="M870 2372.36 920.141 2423 1030.5 2423 1081 2372" stroke="#000000" stroke-width="1.71785" stroke-miterlimit="8" fill="none" fill-rule="evenodd"/><text font-family="Arial,Arial_MSFontService,sans-serif" font-weight="400" font-size="30" transform="matrix(1 0 0 1 948.988 2413)">Null</text><path d="M546.5 2190.5 546.5 2235.5 92.5 2235.5" stroke="#000000" stroke-width="4.90814" stroke-linecap="square" stroke-miterlimit="8" fill="none" fill-rule="evenodd"/><path d="M389.5 1994.5 389.5 2028.5 92.5 2028.5" stroke="#000000" stroke-width="4.90814" stroke-linecap="square" stroke-miterlimit="8" fill="none" fill-rule="evenodd"/><path d="M669.09 1837C684.505 1837 697 1849.53 697 1865L697 1949C697 1964.46 684.505 1977 669.09 1977L303.914 1977C288.498 1977 276 1964.46 276 1949L276 1865C276 1849.53 288.498 1837 303.914 1837L669.09 1837Z" stroke="#000000" stroke-width="1.71785" stroke-miterlimit="8" fill="#FFFFFF" fill-rule="evenodd"/><text font-family="Arial,Arial_MSFontService,sans-serif" font-weight="400" font-size="35" transform="matrix(1 0 0 1 306.164 1875)">Wacht op antwoord</text><path d="M389.236 1996 389.118 1967.66 389.118 1941.22 389 1912.88C389 1897.59 401.482 1885.18 416.878 1885.18L445.211 1885 699 1885.22" stroke="#000000" stroke-width="1.71785" stroke-miterlimit="8" stroke-dasharray="9.66289 6.44193" fill="none" fill-rule="evenodd"/><path d="M582.122 1980 582 1951.27C582 1935.76 594.503 1923.19 609.926 1923.19L638.31 1923 696 1923.22" stroke="#000000" stroke-width="1.71785" stroke-miterlimit="8" stroke-dasharray="9.66289 6.44193" fill="none" fill-rule="evenodd"/><path d="M647.057 1967C654.756 1967 661 1973.23 661 1980.92L661 1988.08C661 1995.77 654.756 2002 647.057 2002L518.947 2002C511.242 2002 505 1995.77 505 1988.08L505 1980.92C505 1973.23 511.242 1967 518.947 1967L647.057 1967Z" stroke="#000000" stroke-width="1.71785" stroke-miterlimit="8" fill="#FFFFFF" fill-rule="evenodd"/><text font-family="Arial,Arial_MSFontService,sans-serif" font-weight="400" font-size="24" transform="matrix(1 0 0 1 558.967 1995)">Iv01</text><path d="M455.053 1967C462.757 1967 469 1973.23 469 1980.92L469 1988.08C469 1995.77 462.755 2002 455.053 2002L326.943 2002C319.245 2002 313 1995.77 313 1988.08L313 1980.92C313 1973.23 319.245 1967 326.943 1967L455.053 1967Z" stroke="#000000" stroke-width="1.71785" stroke-miterlimit="8" fill="#FFFFFF" fill-rule="evenodd"/><text font-family="Arial,Arial_MSFontService,sans-serif" font-weight="400" font-size="24" transform="matrix(1 0 0 1 369.609 1995)">If21</text><path d="M1252 1591.77 1142.06 1592C1126.57 1592 1114 1579.53 1114 1564.15L1114.12 1373.33 1114.45 1205 1115.19 687" stroke="#000000" stroke-width="1.71785" stroke-miterlimit="8" fill="none" fill-rule="evenodd"/><path d="M1178 1592.3 1134 1581 1134 1603Z" fill-rule="evenodd"/><path d="M1531.91 1890 1532 1897.95C1532 1913.34 1514.6 1921.68 1499.2 1921.68L1147.24 1921.46C1126.06 1921.46 1115.81 1923.62 1115.24 1947.71L1115.24 2003.08C1115.57 2022.09 1107.37 2030 1081.98 2030L1067 2030" stroke="#000000" stroke-width="1.71785" stroke-miterlimit="8" fill="none" fill-rule="evenodd"/><path d="M1594.5 1839.5 1594.5 1908.5 1869.5 1908.5" stroke="#000000" stroke-width="4.90814" stroke-linecap="square" stroke-miterlimit="8" fill="none" fill-rule="evenodd"/><path d="M1646.16 1786C1661.53 1786 1674 1798.54 1674 1814L1674 1828C1674 1843.47 1661.53 1856 1646.16 1856L1281.84 1856C1266.47 1856 1254 1843.47 1254 1828L1254 1814C1254 1798.54 1266.47 1786 1281.84 1786L1646.16 1786Z" stroke="#000000" stroke-width="1.71785" stroke-miterlimit="8" fill="#FFFFFF" fill-rule="evenodd"/><text font-family="Arial,Arial_MSFontService,sans-serif" font-weight="400" font-size="35" transform="matrix(1 0 0 1 1277.08 1834)">Is dit de gevraagde PL?</text><path d="M1625.06 1847C1632.76 1847 1639 1853.23 1639 1860.92L1639 1868.08C1639 1875.77 1632.76 1882 1625.06 1882L1496.95 1882C1489.24 1882 1483 1875.77 1483 1868.08L1483 1860.92C1483 1853.23 1489.24 1847 1496.95 1847L1625.06 1847Z" stroke="#000000" stroke-width="1.71785" stroke-miterlimit="8" fill="#FFFFFF" fill-rule="evenodd"/><path d="M1432.05 1847C1439.76 1847 1446 1853.23 1446 1860.92L1446 1868.08C1446 1875.77 1439.76 1882 1432.05 1882L1303.95 1882C1296.25 1882 1290 1875.77 1290 1868.08L1290 1860.92C1290 1853.23 1296.25 1847 1303.95 1847L1432.05 1847Z" stroke="#000000" stroke-width="1.71785" stroke-miterlimit="8" fill="#FFFFFF" fill-rule="evenodd"/><text font-family="Arial,Arial_MSFontService,sans-serif" font-weight="400" font-size="24" transform="matrix(1 0 0 1 1537.74 1874)">Nee</text><text font-family="Arial,Arial_MSFontService,sans-serif" font-weight="400" font-size="24" transform="matrix(1 0 0 1 1355.21 1874)">Ja</text><path d="M1367.5 1703.5 1367.5 1767.5" stroke="#000000" stroke-width="4.90814" stroke-linecap="square" stroke-miterlimit="8" fill="none" fill-rule="evenodd"/><path d="M1134 2010.31 1178 1999 1178 2021Z" fill-rule="evenodd"/><path d="M1134 1921.31 1177 1910 1177 1932Z" fill-rule="evenodd"/><path d="M1560.5 2235.5 1560.5 2304.5 1864.5 2304.5" stroke="#000000" stroke-width="4.90814" stroke-linecap="square" stroke-miterlimit="8" fill="none" fill-rule="evenodd"/><path d="M1175 2164.31 1131 2153 1131 2175Z" fill-rule="evenodd"/><path d="M1290 2199.22 1210.38 2199 1182.07 2199.18C1166.7 2199.18 1154.23 2211.7 1154.23 2227.14L1154.24 2244.34 1154.24 2392.09C1154.24 2407.53 1142.74 2422 1127.36 2422L1082 2421.78" stroke="#000000" stroke-width="1.71785" stroke-miterlimit="8" fill="none" fill-rule="evenodd"/><path d="M1133 2421.3 1089 2410 1089 2432Z" fill-rule="evenodd"/><path d="M1254.5 459.051C1254.5 423.5 1288.91 423.5 1288.91 423.5L1846.79 423.5C1846.79 423.5 1881.5 423.197 1881.5 457.836 1881.5 492.475 1845.56 492.477 1845.56 492.477L1288.91 492.477C1288.91 492.475 1254.5 494.602 1254.5 459.051Z" stroke="#000000" stroke-width="1.22703" stroke-miterlimit="8" fill="#FFFFFF" fill-rule="evenodd"/><text font-family="Arial,Arial_MSFontService,sans-serif" font-weight="400" font-size="39" transform="matrix(1 0 0 1 1328.98 470)">Gemeente van vestiging</text><path d="M69.4999 459.051C69.4999 423.5 103.907 423.5 103.907 423.5L661.787 423.5C661.787 423.5 696.5 423.197 696.5 457.836 696.5 492.475 660.558 492.477 660.558 492.477L103.907 492.477C103.907 492.475 69.4999 494.602 69.4999 459.051Z" stroke="#000000" stroke-width="1.22703" stroke-miterlimit="8" fill="#FFFFFF" fill-rule="evenodd"/><text font-family="Arial,Arial_MSFontService,sans-serif" font-weight="400" font-size="39" transform="matrix(1 0 0 1 166.361 470)">Gemeente van vertrek</text><path d="M103.5 702C103.5 721.054 88.0538 736.5 68.9999 736.5 49.946 736.5 34.4999 721.054 34.4999 702 34.4999 682.946 49.946 667.5 68.9999 667.5 88.0538 667.5 103.5 682.946 103.5 702Z" stroke="#000000" stroke-width="1.22703" stroke-miterlimit="8" fill="#FFFFFF" fill-rule="evenodd"/><text font-family="Arial,Arial_MSFontService,sans-serif" font-weight="400" font-size="49" transform="matrix(1 0 0 1 55.2252 721)">1</text><path d="M103.5 911C103.5 930.054 88.0538 945.5 68.9999 945.5 49.946 945.5 34.4999 930.054 34.4999 911 34.4999 891.946 49.946 876.5 68.9999 876.5 88.0538 876.5 103.5 891.946 103.5 911Z" stroke="#000000" stroke-width="1.22703" stroke-miterlimit="8" fill="#FFFFFF" fill-rule="evenodd"/><text font-family="Arial,Arial_MSFontService,sans-serif" font-weight="400" font-size="49" transform="matrix(1 0 0 1 55.2252 930)">2</text><path d="M103.5 1005C103.5 1024.05 88.0538 1039.5 68.9999 1039.5 49.946 1039.5 34.4999 1024.05 34.4999 1005 34.4999 985.946 49.946 970.5 68.9999 970.5 88.0538 970.5 103.5 985.946 103.5 1005Z" stroke="#000000" stroke-width="1.22703" stroke-miterlimit="8" fill="#FFFFFF" fill-rule="evenodd"/><text font-family="Arial,Arial_MSFontService,sans-serif" font-weight="400" font-size="49" transform="matrix(1 0 0 1 55.2252 1024)">3</text><path d="M104.5 1487C104.5 1506.05 89.0539 1521.5 70 1521.5 50.946 1521.5 35.4999 1506.05 35.4999 1487 35.4999 1467.95 50.946 1452.5 70 1452.5 89.0539 1452.5 104.5 1467.95 104.5 1487Z" stroke="#000000" stroke-width="1.22703" stroke-miterlimit="8" fill="#FFFFFF" fill-rule="evenodd"/><text font-family="Arial,Arial_MSFontService,sans-serif" font-weight="400" font-size="49" transform="matrix(1 0 0 1 56.1469 1506)">5</text><path d="M103.5 2029C103.5 2048.05 88.0538 2063.5 68.9999 2063.5 49.946 2063.5 34.4999 2048.05 34.4999 2029 34.4999 2009.95 49.946 1994.5 68.9999 1994.5 88.0538 1994.5 103.5 2009.95 103.5 2029Z" stroke="#000000" stroke-width="1.22703" stroke-miterlimit="8" fill="#FFFFFF" fill-rule="evenodd"/><text font-family="Arial,Arial_MSFontService,sans-serif" font-weight="400" font-size="49" transform="matrix(1 0 0 1 54.9177 2048)">8</text><path d="M103.5 2236C103.5 2255.05 88.0538 2270.5 68.9999 2270.5 49.946 2270.5 34.4999 2255.05 34.4999 2236 34.4999 2216.95 49.946 2201.5 68.9999 2201.5 88.0538 2201.5 103.5 2216.95 103.5 2236Z" stroke="#000000" stroke-width="1.22703" stroke-miterlimit="8" fill="#FFFFFF" fill-rule="evenodd"/><text font-family="Arial,Arial_MSFontService,sans-serif" font-weight="400" font-size="49" transform="matrix(1 0 0 1 54.7503 2255)">9</text><path d="M1915.5 1732C1915.5 1751.05 1900.05 1766.5 1881 1766.5 1861.95 1766.5 1846.5 1751.05 1846.5 1732 1846.5 1712.95 1861.95 1697.5 1881 1697.5 1900.05 1697.5 1915.5 1712.95 1915.5 1732Z" stroke="#000000" stroke-width="1.22703" stroke-miterlimit="8" fill="#FFFFFF" fill-rule="evenodd"/><text font-family="Arial,Arial_MSFontService,sans-serif" font-weight="400" font-size="49" transform="matrix(1 0 0 1 1867.13 1752)">6</text><path d="M1881 1942.5C1900.06 1942.5 1915.5 1927.05 1915.5 1908 1915.5 1888.94 1900.06 1873.5 1881 1873.5 1861.95 1873.5 1846.5 1888.94 1846.5 1908 1846.5 1927.05 1861.95 1942.5 1881 1942.5Z" stroke="#000000" stroke-width="1.22703" stroke-miterlimit="8" fill="#FFFFFF" fill-rule="evenodd"/><text font-family="Arial,Arial_MSFontService,sans-serif" font-weight="400" font-size="49" transform="matrix(1 0 0 1 1867.13 1928)">7</text><path d="M1915.5 2304.5C1915.5 2323.28 1900.05 2338.5 1881 2338.5 1861.95 2338.5 1846.5 2323.28 1846.5 2304.5 1846.5 2285.72 1861.95 2270.5 1881 2270.5 1900.05 2270.5 1915.5 2285.72 1915.5 2304.5Z" stroke="#000000" stroke-width="1.22703" stroke-miterlimit="8" fill="#FFFFFF" fill-rule="evenodd"/><text font-family="Arial,Arial_MSFontService,sans-serif" font-weight="400" font-size="49" transform="matrix(1 0 0 1 1853.46 2324)">10</text><path d="M1366.77 1941.06 1386 1934 1366.77 1976 1347 1934Z" fill-rule="evenodd"/><path d="M1366.77 1749.9 1386 1743 1366.77 1784 1347 1743Z" fill-rule="evenodd"/><path d="M1532 1890.5C1536.15 1890.5 1539.5 1887.14 1539.5 1883 1539.5 1878.86 1536.15 1875.5 1532 1875.5 1527.87 1875.5 1524.5 1878.86 1524.5 1883 1524.5 1887.14 1527.87 1890.5 1532 1890.5Z" stroke="#000000" stroke-width="1.22703" stroke-linecap="square" stroke-miterlimit="8" fill="#FFFFFF" fill-rule="evenodd"/><path d="M1646.16 1976C1661.53 1976 1674 1988.54 1674 2004L1674 2018C1674 2033.47 1661.53 2046 1646.16 2046L1281.84 2046C1266.47 2046 1254 2033.47 1254 2018L1254 2004C1254 1988.54 1266.47 1976 1281.84 1976L1646.16 1976Z" stroke="#000000" stroke-width="1.71785" stroke-miterlimit="8" fill="#FFFFFF" fill-rule="evenodd"/><text font-family="Arial,Arial_MSFontService,sans-serif" font-weight="400" font-size="35" transform="matrix(1 0 0 1 1282.98 2023)">Maak verwijsgegevens</text><path d="M1262.5 2011C1262.5 2015.14 1259.14 2018.5 1255 2018.5 1250.86 2018.5 1247.5 2015.14 1247.5 2011 1247.5 2006.86 1250.86 2003.5 1255 2003.5 1259.14 2003.5 1262.5 2006.86 1262.5 2011Z" stroke="#000000" stroke-width="1.22703" stroke-linecap="square" stroke-miterlimit="8" fill="#FFFFFF" fill-rule="evenodd"/><path d="M1366.77 2076.9 1386 2070 1366.77 2111 1347 2070Z" fill-rule="evenodd"/><path d="M1367.27 2337.9 1387 2331 1367.27 2372 1347 2331Z" fill-rule="evenodd"/><path d="M354.765 2337.9 374 2331 354.765 2372 335 2331Z" fill-rule="evenodd"/><path d="M703.501 1885C703.501 1889.14 700.142 1892.5 696 1892.5 691.858 1892.5 688.5 1889.14 688.5 1885 688.5 1880.86 691.858 1877.5 696 1877.5 700.142 1877.5 703.501 1880.86 703.501 1885Z" stroke="#000000" stroke-width="1.22703" stroke-linecap="square" stroke-miterlimit="8" fill="#FFFFFF" fill-rule="evenodd"/><path d="M417.501 867C417.501 871.142 414.142 874.5 410 874.5 405.858 874.5 402.5 871.142 402.5 867 402.5 862.858 405.858 859.5 410 859.5 414.142 859.5 417.501 862.858 417.501 867Z" stroke="#000000" stroke-width="1.22703" stroke-linecap="square" stroke-miterlimit="8" fill="#FFFFFF" fill-rule="evenodd"/><path d="M224.5 867C224.5 871.142 221.142 874.5 217 874.5 212.858 874.5 209.5 871.142 209.5 867 209.5 862.858 212.858 859.5 217 859.5 221.142 859.5 224.5 862.858 224.5 867Z" stroke="#000000" stroke-width="1.22703" stroke-linecap="square" stroke-miterlimit="8" fill="#FFFFFF" fill-rule="evenodd"/><path d="M227.5 659C227.5 663.142 224.142 666.5 220 666.5 215.858 666.5 212.5 663.142 212.5 659 212.5 654.858 215.858 651.5 220 651.5 224.142 651.5 227.5 654.858 227.5 659Z" stroke="#000000" stroke-width="1.22703" stroke-linecap="square" stroke-miterlimit="8" fill="#FFFFFF" fill-rule="evenodd"/><path d="M372.274 735.062 392 728 372.274 770 352 728Z" fill-rule="evenodd"/><path d="M674.938 970.767 682 990 640 970.767 682 951Z" fill-rule="evenodd"/><path d="M639.769 1672.06 659 1665 639.769 1707 620 1665Z" fill-rule="evenodd"/><path d="M488.5 1739.5 488.5 1823.5" stroke="#000000" stroke-width="4.90814" stroke-linecap="square" stroke-miterlimit="8" fill="none" fill-rule="evenodd"/><path d="M487.768 1802.07 507 1795 487.768 1837 468 1795Z" fill-rule="evenodd"/><path d="M581.274 2046.07 601 2039 581.274 2081 561 2039Z" fill-rule="evenodd"/><path d="M669.09 2081C684.505 2081 697 2093.53 697 2109L697 2158C697 2173.46 684.505 2186 669.09 2186L303.914 2186C288.498 2186 276 2173.46 276 2158L276 2109C276 2093.53 288.498 2081 303.914 2081L669.09 2081Z" stroke="#000000" stroke-width="1.71785" stroke-miterlimit="8" fill="#FFFFFF" fill-rule="evenodd"/><text font-family="Arial,Arial_MSFontService,sans-serif" font-weight="400" font-size="35" transform="matrix(1 0 0 1 305.31 2129)">Verwijsgegevens</text><text font-family="Arial,Arial_MSFontService,sans-serif" font-weight="400" font-size="35" transform="matrix(1 0 0 1 305.31 2163)">correct?</text><path d="M647.057 2176C654.756 2176 661 2182.23 661 2189.92L661 2197.08C661 2204.77 654.756 2211 647.057 2211L518.947 2211C511.242 2211 505 2204.77 505 2197.08L505 2189.92C505 2182.23 511.242 2176 518.947 2176L647.057 2176Z" stroke="#000000" stroke-width="1.71785" stroke-miterlimit="8" fill="#FFFFFF" fill-rule="evenodd"/><path d="M455.053 2176C462.757 2176 469 2182.23 469 2189.92L469 2197.08C469 2204.77 462.755 2211 455.053 2211L326.943 2211C319.245 2211 313 2204.77 313 2197.08L313 2189.92C313 2182.23 319.245 2176 326.943 2176L455.053 2176Z" stroke="#000000" stroke-width="1.71785" stroke-miterlimit="8" fill="#FFFFFF" fill-rule="evenodd"/><text font-family="Arial,Arial_MSFontService,sans-serif" font-weight="400" font-size="24" transform="matrix(1 0 0 1 560.072 2204)">Nee</text><text font-family="Arial,Arial_MSFontService,sans-serif" font-weight="400" font-size="24" transform="matrix(1 0 0 1 377.536 2204)">Ja</text><path d="M433.5 2212C433.5 2216.14 430.142 2219.5 426 2219.5 421.858 2219.5 418.5 2216.14 418.5 2212 418.5 2207.86 421.858 2204.5 426 2204.5 430.142 2204.5 433.5 2207.86 433.5 2212Z" stroke="#000000" stroke-width="1.22703" stroke-linecap="square" stroke-miterlimit="8" fill="#FFFFFF" fill-rule="evenodd"/><path d="M1646.16 1540C1661.53 1540 1674 1552.54 1674 1568L1674 1652C1674 1667.46 1661.53 1680 1646.16 1680L1281.84 1680C1266.47 1680 1254 1667.46 1254 1652L1254 1568C1254 1552.54 1266.47 1540 1281.84 1540L1646.16 1540Z" stroke="#000000" stroke-width="1.71785" stroke-miterlimit="8" fill="#FFFFFF" fill-rule="evenodd"/><text font-family="Arial,Arial_MSFontService,sans-serif" font-weight="400" font-size="35" transform="matrix(1 0 0 1 1282.98 1588)">Wacht op antwoord</text><path d="M1559.76 1704 1559.88 1675.41 1559.88 1648.72 1560 1620.13C1560 1604.7 1547.52 1592.19 1532.12 1592.19L1503.79 1592 1250 1592.22" stroke="#000000" stroke-width="1.71785" stroke-miterlimit="8" stroke-dasharray="9.66289 6.44193" fill="none" fill-rule="evenodd"/><path d="M1367.87 1683 1368 1654.77C1368 1639.53 1355.5 1627.18 1340.08 1627.18L1311.69 1627 1254 1627.22" stroke="#000000" stroke-width="1.71785" stroke-miterlimit="8" stroke-dasharray="9.66289 6.44193" fill="none" fill-rule="evenodd"/><path d="M1625.06 1671C1632.76 1671 1639 1677.23 1639 1684.92L1639 1692.08C1639 1699.77 1632.76 1706 1625.06 1706L1496.95 1706C1489.24 1706 1483 1699.77 1483 1692.08L1483 1684.92C1483 1677.23 1489.24 1671 1496.95 1671L1625.06 1671Z" stroke="#000000" stroke-width="1.71785" stroke-miterlimit="8" fill="#FFFFFF" fill-rule="evenodd"/><text font-family="Arial,Arial_MSFontService,sans-serif" font-weight="400" font-size="24" transform="matrix(1 0 0 1 1539.25 1698)">If01</text><path d="M1261.5 1593C1261.5 1597.14 1258.37 1600.5 1254.5 1600.5 1250.63 1600.5 1247.5 1597.14 1247.5 1593 1247.5 1588.86 1250.63 1585.5 1254.5 1585.5 1258.37 1585.5 1261.5 1588.86 1261.5 1593Z" stroke="#000000" stroke-width="1.22703" stroke-linecap="square" stroke-miterlimit="8" fill="#FFFFFF" fill-rule="evenodd"/><path d="M1261.5 1627.5C1261.5 1631.37 1258.37 1634.5 1254.5 1634.5 1250.63 1634.5 1247.5 1631.37 1247.5 1627.5 1247.5 1623.63 1250.63 1620.5 1254.5 1620.5 1258.37 1620.5 1261.5 1623.63 1261.5 1627.5Z" stroke="#000000" stroke-width="1.22703" stroke-linecap="square" stroke-miterlimit="8" fill="#FFFFFF" fill-rule="evenodd"/><path d="M1432.05 1671C1439.76 1671 1446 1677.23 1446 1684.92L1446 1692.08C1446 1699.77 1439.76 1706 1432.05 1706L1303.95 1706C1296.25 1706 1290 1699.77 1290 1692.08L1290 1684.92C1290 1677.23 1296.25 1671 1303.95 1671L1432.05 1671Z" stroke="#000000" stroke-width="1.71785" stroke-miterlimit="8" fill="#FFFFFF" fill-rule="evenodd"/><text font-family="Arial,Arial_MSFontService,sans-serif" font-weight="400" font-size="24" transform="matrix(1 0 0 1 1343.99 1698)">Ib01</text><path d="M647.052 831C654.76 831 661 837.231 661 844.913L661 852.087C661 859.771 654.76 866 647.052 866L518.95 866C511.245 866 505 859.771 505 852.087L505 844.913C505 837.231 511.245 831 518.95 831L647.052 831Z" stroke="#000000" stroke-width="1.71785" stroke-miterlimit="8" fill="#FFFFFF" fill-rule="evenodd"/><text font-family="Arial,Arial_MSFontService,sans-serif" font-weight="400" font-size="24" transform="matrix(1 0 0 1 526.989 858)">Niet uniek</text><path d="M624.5 867C624.5 871.142 621.366 874.5 617.5 874.5 613.634 874.5 610.5 871.142 610.5 867 610.5 862.858 613.634 859.5 617.5 859.5 621.366 859.5 624.5 862.858 624.5 867Z" stroke="#000000" stroke-width="1.22703" stroke-linecap="square" stroke-miterlimit="8" fill="#FFFFFF" fill-rule="evenodd"/><path d="M1646.16 2113C1661.53 2113 1674 2125.45 1674 2140.8L1674 2224.2C1674 2239.55 1661.53 2252 1646.16 2252L1281.84 2252C1266.47 2252 1254 2239.55 1254 2224.2L1254 2140.8C1254 2125.45 1266.47 2113 1281.84 2113L1646.16 2113Z" stroke="#000000" stroke-width="1.71785" stroke-miterlimit="8" fill="#FFFFFF" fill-rule="evenodd"/><text font-family="Arial,Arial_MSFontService,sans-serif" font-weight="400" font-size="35" transform="matrix(1 0 0 1 1282.98 2160)">Wacht op antwoord</text><path d="M1559.76 2276 1559.88 2247.41 1559.88 2220.72 1560 2192.13C1560 2176.7 1547.52 2164.19 1532.12 2164.19L1503.79 2164 1250 2164.22" stroke="#000000" stroke-width="1.71785" stroke-miterlimit="8" stroke-dasharray="9.66289 6.44193" fill="none" fill-rule="evenodd"/><path d="M1367.87 2256 1368 2227.27C1368 2211.76 1355.5 2199.18 1340.08 2199.18L1311.69 2199 1254 2199.22" stroke="#000000" stroke-width="1.71785" stroke-miterlimit="8" stroke-dasharray="9.66289 6.44193" fill="none" fill-rule="evenodd"/><path d="M1432.05 2243C1439.76 2243 1446 2249.23 1446 2256.92L1446 2264.08C1446 2271.77 1439.76 2278 1432.05 2278L1303.95 2278C1296.25 2278 1290 2271.77 1290 2264.08L1290 2256.92C1290 2249.23 1296.25 2243 1303.95 2243L1432.05 2243Z" stroke="#000000" stroke-width="1.71785" stroke-miterlimit="8" fill="#FFFFFF" fill-rule="evenodd"/><text font-family="Arial,Arial_MSFontService,sans-serif" font-weight="400" font-size="24" transform="matrix(1 0 0 1 1346.63 2270)">Null</text><path d="M1625.06 2243C1632.76 2243 1639 2249.23 1639 2256.92L1639 2264.08C1639 2271.77 1632.76 2278 1625.06 2278L1496.95 2278C1489.24 2278 1483 2271.77 1483 2264.08L1483 2256.92C1483 2249.23 1489.24 2243 1496.95 2243L1625.06 2243Z" stroke="#000000" stroke-width="1.71785" stroke-miterlimit="8" fill="#FFFFFF" fill-rule="evenodd"/><text font-family="Arial,Arial_MSFontService,sans-serif" font-weight="400" font-size="24" transform="matrix(1 0 0 1 1539.25 2270)">If31</text><path d="M1261.5 2200C1261.5 2204.14 1258.37 2207.5 1254.5 2207.5 1250.63 2207.5 1247.5 2204.14 1247.5 2200 1247.5 2195.86 1250.63 2192.5 1254.5 2192.5 1258.37 2192.5 1261.5 2195.86 1261.5 2200Z" stroke="#000000" stroke-width="1.22703" stroke-linecap="square" stroke-miterlimit="8" fill="#FFFFFF" fill-rule="evenodd"/><path d="M1261.5 2165.5C1261.5 2169.37 1258.37 2172.5 1254.5 2172.5 1250.63 2172.5 1247.5 2169.37 1247.5 2165.5 1247.5 2161.63 1250.63 2158.5 1254.5 2158.5 1258.37 2158.5 1261.5 2161.63 1261.5 2165.5Z" stroke="#000000" stroke-width="1.22703" stroke-linecap="square" stroke-miterlimit="8" fill="#FFFFFF" fill-rule="evenodd"/><path d="M671.023 1709C686.475 1709 699 1721.36 699 1736.6L699 1750.4C699 1765.64 686.475 1778 671.023 1778L304.977 1778C289.525 1778 277 1765.64 277 1750.4L277 1736.6C277 1721.36 289.525 1709 304.977 1709L671.023 1709Z" stroke="#000000" stroke-width="1.71785" stroke-miterlimit="8" fill="#FFFFFF" fill-rule="evenodd"/><text font-family="Arial,Arial_MSFontService,sans-serif" font-weight="400" font-size="35" transform="matrix(1 0 0 1 307.927 1757)">Verzend PL</text><path d="M1707 666 1921 666 1921 545.287 1892.14 546.208C1892.14 533 1882.31 533 1882.31 533L1862.66 533C1862.66 533 1852.84 533.616 1852.84 546.208L1707 546.208 1707 666Z" stroke="#000000" stroke-width="2.45407" stroke-linecap="square" stroke-miterlimit="8" fill="#FFFFFF" fill-rule="evenodd"/><text font-family="Arial,Arial_MSFontService,sans-serif" font-weight="400" font-size="35" transform="matrix(1 0 0 1 1744.98 604)">Aangifte</text><text font-family="Arial,Arial_MSFontService,sans-serif" font-weight="400" font-size="35" transform="matrix(1 0 0 1 1759.42 639)">burger</text><path d="M497.5 1266.5 497.5 1329.5 96.5001 1329.5" stroke="#000000" stroke-width="4.90814" stroke-linecap="square" stroke-miterlimit="8" fill="none" fill-rule="evenodd"/><path d="M116.5 1259.5 116.436 1328.5 92.5 1328.5" stroke="#000000" stroke-width="4.90814" stroke-linecap="square" stroke-miterlimit="8" fill="none" fill-rule="evenodd"/><path d="M103.5 1329C103.5 1348.05 88.0538 1363.5 68.9999 1363.5 49.946 1363.5 34.4999 1348.05 34.4999 1329 34.4999 1309.95 49.946 1294.5 68.9999 1294.5 88.0538 1294.5 103.5 1309.95 103.5 1329Z" stroke="#000000" stroke-width="1.22703" stroke-miterlimit="8" fill="#FFFFFF" fill-rule="evenodd"/><path d="M1473.5 597.5 1472.5 1510.5" stroke="#000000" stroke-width="4.90814" stroke-linecap="square" stroke-miterlimit="8" fill="none" fill-rule="evenodd"/><path d="M1645.16 561C1660.54 561 1673 573.535 1673 589L1673 603.002C1673 618.467 1660.54 631 1645.16 631L1280.84 631C1265.46 631 1253 618.467 1253 603.002L1253 589C1253 573.533 1265.46 561 1280.84 561L1645.16 561Z" stroke="#000000" stroke-width="1.71785" stroke-miterlimit="8" fill="#FFFFFF" fill-rule="evenodd"/><text font-family="Arial,Arial_MSFontService,sans-serif" font-weight="400" font-size="35" transform="matrix(1 0 0 1 1281.78 609)">Maak Ii01 uit aangifte</text><path d="M1471.77 1505.9 1491 1499 1471.77 1540 1452 1499Z" fill-rule="evenodd"/><path d="M1261.5 597C1261.5 601.142 1258.37 604.501 1254.5 604.501 1250.63 604.501 1247.5 601.142 1247.5 597 1247.5 592.858 1250.63 589.5 1254.5 589.5 1258.37 589.5 1261.5 592.858 1261.5 597Z" stroke="#000000" stroke-width="1.22703" stroke-linecap="square" stroke-miterlimit="8" fill="#FFFFFF" fill-rule="evenodd"/><path d="M149.094 1214C156.775 1214 163 1220.25 163 1227.96L163 1270.04C163 1277.75 156.775 1284 149.094 1284L90.8999 1284C83.2212 1284 77 1277.75 77 1270.04L77 1227.96C77 1220.25 83.2212 1214 90.8999 1214L149.094 1214Z" stroke="#000000" stroke-width="1.71785" stroke-miterlimit="8" fill="#FFFFFF" fill-rule="evenodd"/><path d="M274.45 1214C281.382 1214 287 1220.25 287 1227.96L287 1270.04C287 1277.75 281.382 1284 274.45 1284L190.547 1284C183.619 1284 178 1277.75 178 1270.04L178 1227.96C178 1220.25 183.619 1214 190.547 1214L274.45 1214Z" stroke="#000000" stroke-width="1.71785" stroke-miterlimit="8" fill="#FFFFFF" fill-rule="evenodd"/><text font-family="Arial,Arial_MSFontService,sans-serif" font-weight="400" font-size="24" transform="matrix(1 0 0 1 87.8087 1241)">Over</text><text font-family="Arial,Arial_MSFontService,sans-serif" font-weight="400" font-size="24" transform="matrix(1 0 0 1 139.371 1241)">-</text><text font-family="Arial,Arial_MSFontService,sans-serif" font-weight="400" font-size="24" transform="matrix(1 0 0 1 87.8087 1268)">leden</text><text font-family="Arial,Arial_MSFontService,sans-serif" font-weight="400" font-size="24" transform="matrix(1 0 0 1 189.378 1241)">Geblok</text><text font-family="Arial,Arial_MSFontService,sans-serif" font-weight="400" font-size="24" transform="matrix(1 0 0 1 264.43 1241)">-</text><text font-family="Arial,Arial_MSFontService,sans-serif" font-weight="400" font-size="24" transform="matrix(1 0 0 1 189.378 1268)">keerd</text><path d="M263.501 1285C263.501 1289.14 260.142 1292.5 256 1292.5 251.858 1292.5 248.5 1289.14 248.5 1285 248.5 1280.86 251.858 1277.5 256 1277.5 260.142 1277.5 263.501 1280.86 263.501 1285Z" stroke="#000000" stroke-width="1.22703" stroke-linecap="square" stroke-miterlimit="8" fill="#FFFFFF" fill-rule="evenodd"/><path d="M145.5 1285C145.5 1289.14 142.366 1292.5 138.5 1292.5 134.634 1292.5 131.5 1289.14 131.5 1285 131.5 1280.86 134.634 1277.5 138.5 1277.5 142.366 1277.5 145.5 1280.86 145.5 1285Z" stroke="#000000" stroke-width="1.22703" stroke-linecap="square" stroke-miterlimit="8" fill="#FFFFFF" fill-rule="evenodd"/><path d="M750 2338.04 763.584 2338C778.913 2338 791.343 2350.55 791.343 2366.01L792.07 2378.17 792.197 2395.05C792.197 2410.53 803.528 2423 818.859 2423L868 2422.78" stroke="#000000" stroke-width="1.71785" stroke-miterlimit="8" fill="none" fill-rule="evenodd"/><path d="M614.22 2218 614 2238.84 614.183 2267.35C614.183 2282.84 624.464 2295 639.826 2295L659.134 2294.54 869 2294.42" stroke="#000000" stroke-width="1.71785" stroke-miterlimit="8" fill="none" fill-rule="evenodd"/><path d="M1247 2164.22 1167.27 2164 1138.93 2164.18C1123.53 2164.18 1111.05 2176.65 1111.05 2192.03L1111.05 2220.96 1111.05 2267.19C1111.05 2282.57 1099.54 2297 1084.14 2297L1082 2296.78" stroke="#000000" stroke-width="1.71785" stroke-miterlimit="8" fill="none" fill-rule="evenodd"/><path d="M870.5 1981.5 1081.5 1981.5 1081.5 2086.5 870.5 2086.5Z" stroke="#000000" stroke-width="4.90814" stroke-miterlimit="8" fill="#FFFFFF" fill-rule="evenodd"/><path d="M870 1980.36 920.146 2031 1030.5 2031 1081 1980" stroke="#000000" stroke-width="1.71785" stroke-miterlimit="8" fill="none" fill-rule="evenodd"/><text font-family="Arial,Arial_MSFontService,sans-serif" font-weight="400" font-size="30" transform="matrix(1 0 0 1 950.07 2021)">If21</text><path d="M870.5 1845.5 1081.5 1845.5 1081.5 1951.5 870.5 1951.5Z" stroke="#000000" stroke-width="4.90814" stroke-miterlimit="8" fill="#FFFFFF" fill-rule="evenodd"/><path d="M870 1845.35 920.146 1895 1030.5 1895 1081 1845" stroke="#000000" stroke-width="1.71785" stroke-miterlimit="8" fill="none" fill-rule="evenodd"/><text font-family="Arial,Arial_MSFontService,sans-serif" font-weight="400" font-size="30" transform="matrix(1 0 0 1 945.966 1886)">Ib01</text><text font-family="Arial,Arial_MSFontService,sans-serif" font-weight="400" font-size="30" transform="matrix(1 0 0 1 965.897 1935)">A</text><path d="M1247 2010.41 1172.97 2010.19 1144.54 2010.38C1129 2007.57 1116.59 2020.89 1116.59 2036.29L1116.56 2075.08 1116.56 2133.16C1116.56 2148.56 1105.04 2163 1089.6 2163L1048 2162.78" stroke="#000000" stroke-width="1.71785" stroke-miterlimit="8" fill="none" fill-rule="evenodd"/><path d="M622.5 2212C622.5 2216.14 619.142 2219.5 615 2219.5 610.858 2219.5 607.5 2216.14 607.5 2212 607.5 2207.86 610.858 2204.5 615 2204.5 619.142 2204.5 622.5 2207.86 622.5 2212Z" stroke="#000000" stroke-width="1.22703" stroke-linecap="square" stroke-miterlimit="8" fill="#FFFFFF" fill-rule="evenodd"/><path d="M688 1924.22 726.471 1924 754.855 1924.18C770.274 1924.18 782.776 1936.66 782.776 1952.05L782.778 1988.87 782.778 2136.17C782.778 2151.56 794.302 2166 809.722 2166L869 2165.78" stroke="#000000" stroke-width="1.71785" stroke-miterlimit="8" fill="none" fill-rule="evenodd"/><path d="M870.5 2114.5 1081.5 2114.5 1081.5 2220.5 870.5 2220.5Z" stroke="#000000" stroke-width="4.90814" stroke-miterlimit="8" fill="#FFFFFF" fill-rule="evenodd"/><path d="M870 2114.36 920.146 2165 1030.5 2165 1081 2114" stroke="#000000" stroke-width="1.71785" stroke-miterlimit="8" fill="none" fill-rule="evenodd"/><text font-family="Arial,Arial_MSFontService,sans-serif" font-weight="400" font-size="30" transform="matrix(1 0 0 1 946.794 2155)">Iv01</text><path d="M703.501 1925C703.501 1929.14 700.142 1932.5 696 1932.5 691.858 1932.5 688.5 1929.14 688.5 1925 688.5 1920.86 691.858 1917.5 696 1917.5 700.142 1917.5 703.501 1920.86 703.501 1925Z" stroke="#000000" stroke-width="1.22703" stroke-linecap="square" stroke-miterlimit="8" fill="#FFFFFF" fill-rule="evenodd"/><path d="M703 1742.22 773.309 1742C788.678 1742 801.137 1754.5 801.137 1769.92L801.015 1800.47 801.015 1821.78 800.897 1868.08C800.897 1883.5 813.354 1896 828.725 1896L871 1896" stroke="#000000" stroke-width="1.71785" stroke-miterlimit="8" fill="none" fill-rule="evenodd"/><path d="M863 1896.31 820 1885 820 1907Z" fill-rule="evenodd"/><path d="M1247 1625.22 1167.29 1625 1138.95 1625.18C1123.56 1625.18 1111.07 1637.68 1111.07 1653.09L1111.08 1839.55 1111.08 1868.1C1111.08 1883.52 1099.57 1896 1084.17 1896L1084 1895.78" stroke="#000000" stroke-width="1.71785" stroke-miterlimit="8" fill="none" fill-rule="evenodd"/><path d="M1178 1624.82 1134 1613 1134 1636Z" fill-rule="evenodd"/><path d="M1114 1520C1114 1504.54 1104.28 1492 1088.98 1492L1081 1492" stroke="#000000" stroke-width="1.71785" stroke-miterlimit="8" fill="none" fill-rule="evenodd"/><path d="M870.5 1579.5 1081.5 1579.5 1081.5 1685.5 870.5 1685.5Z" stroke="#000000" stroke-width="4.90814" stroke-miterlimit="8" fill="#FFFFFF" fill-rule="evenodd"/><text font-family="Arial,Arial_MSFontService,sans-serif" font-weight="400" font-size="30" transform="matrix(1 0 0 1 949.529 1620)">If01</text><text font-family="Arial,Arial_MSFontService,sans-serif" font-weight="400" font-size="30" transform="matrix(1 0 0 1 905.705 1669)">Code "M "</text><path d="M870 1579.36 920.141 1629 1030.5 1629 1081 1579" stroke="#000000" stroke-width="1.71785" stroke-miterlimit="8" fill="none" fill-rule="evenodd"/><path d="M1114.85 1569C1114.85 1576.02 1116.03 1602.19 1111.78 1610.22 1106.63 1619.96 1095.62 1628 1087.11 1628L1081 1627.77" stroke="#000000" stroke-width="1.71785" stroke-miterlimit="8" fill="none" fill-rule="evenodd"/><path d="M697 598.78 763.194 599C778.519 599 790.942 586.536 790.942 571.151L790.821 542.647 790.821 552.836 790.703 547.919C790.703 532.538 803.125 524 818.452 524L871 524.218" stroke="#000000" stroke-width="1.71785" stroke-miterlimit="8" fill="none" fill-rule="evenodd"/><path d="M1081 524.214 1147.51 524C1162.91 524 1175.4 536.133 1175.4 551.106L1175.27 578.85 1175.27 568.933 1175.15 573.72C1175.15 588.691 1187.64 597 1203.04 597L1246 596.788" stroke="#000000" stroke-width="1.71785" stroke-miterlimit="8" fill="none" fill-rule="evenodd"/><path d="M695 719.78 761.194 720C776.519 720 788.942 707.507 788.942 692.088L788.821 675.689 788.821 685.901 788.703 680.974C788.703 665.558 801.125 657 816.452 657L869 657.219" stroke="#000000" stroke-width="1.71785" stroke-miterlimit="8" fill="none" fill-rule="evenodd"/><path d="M734 896.001 759.08 896.001C774.419 896.001 786.871 884.323 786.871 869.002L786.75 813.57 786.75 862.855 786.632 818.82C786.632 803.503 799.065 795 814.405 795L867 795.217" stroke="#000000" stroke-width="1.71785" stroke-miterlimit="8" fill="none" fill-rule="evenodd"/><path d="M562.448 1214C569.38 1214 575 1220.25 575 1227.96L575 1270.04C575 1277.75 569.382 1284 562.448 1284L478.546 1284C471.618 1284 466 1277.75 466 1270.04L466 1227.96C466 1220.25 471.618 1214 478.546 1214L562.448 1214Z" stroke="#000000" stroke-width="1.71785" stroke-miterlimit="8" fill="#FFFFFF" fill-rule="evenodd"/><text font-family="Arial,Arial_MSFontService,sans-serif" font-weight="400" font-size="24" transform="matrix(1 0 0 1 479.848 1240)">Geëmi</text><text font-family="Arial,Arial_MSFontService,sans-serif" font-weight="400" font-size="24" transform="matrix(1 0 0 1 549.171 1240)">-</text><text font-family="Arial,Arial_MSFontService,sans-serif" font-weight="400" font-size="24" transform="matrix(1 0 0 1 479.848 1268)">greerd</text><path d="M672.153 1213C680.906 1213 688 1219.25 688 1226.96L688 1269.04C688 1276.75 680.906 1283 672.153 1283L605.839 1283C597.089 1283 590 1276.75 590 1269.04L590 1226.96C590 1219.25 597.089 1213 605.839 1213L672.153 1213Z" stroke="#000000" stroke-width="1.71785" stroke-miterlimit="8" fill="#FFFFFF" fill-rule="evenodd"/><text font-family="Arial,Arial_MSFontService,sans-serif" font-weight="400" font-size="24" transform="matrix(1 0 0 1 595.438 1256)">Actueel</text><path d="M750 1315 759.377 1315C774.673 1315 787.091 1303.32 787.091 1288L786.97 1232.57 786.97 1281.86 786.853 1237.82C786.853 1222.5 799.251 1214 814.55 1214L867 1214.22" stroke="#000000" stroke-width="1.71785" stroke-miterlimit="8" fill="none" fill-rule="evenodd"/><path d="M704.5 1742.5C704.5 1746.37 701.142 1749.5 697 1749.5 692.858 1749.5 689.5 1746.37 689.5 1742.5 689.5 1738.63 692.858 1735.5 697 1735.5 701.142 1735.5 704.5 1738.63 704.5 1742.5Z" stroke="#000000" stroke-width="1.22703" stroke-linecap="square" stroke-miterlimit="8" fill="#FFFFFF" fill-rule="evenodd"/><path d="M872 1627.28 434.706 1629C419.291 1629 407 1618.64 407 1609.13 407.86 1500.42 408.721 1391.71 409.582 1283" stroke="#000000" stroke-width="1.71785" stroke-miterlimit="8" fill="none" fill-rule="evenodd"/><path d="M883 1494 574.681 1493.65C547.067 1493.65 547 1481.29 547 1479.69 547.287 1414.79 547.573 1349.9 547.86 1285" stroke="#000000" stroke-width="1.71785" stroke-miterlimit="8" fill="none" fill-rule="evenodd"/><path d="M862 1493.3 819 1482 819 1504Z" fill-rule="evenodd"/><path d="M816 2030.81 860 2019 860 2042Z" fill-rule="evenodd"/><path d="M1114 1382C1114 1366.54 1104.28 1354 1088.98 1354L1081 1354" stroke="#000000" stroke-width="1.71785" stroke-miterlimit="8" fill="none" fill-rule="evenodd"/><path d="M1115 1240C1115 1224.54 1105.28 1212 1089.98 1212L1082 1212" stroke="#000000" stroke-width="1.71785" stroke-miterlimit="8" fill="none" fill-rule="evenodd"/><path d="M1115 1101C1115 1085.54 1105.15 1073 1089.94 1073L1082 1073" stroke="#000000" stroke-width="1.71785" stroke-miterlimit="8" fill="none" fill-rule="evenodd"/><path d="M1115 963C1115 947.536 1105.01 935 1089.89 935L1082 935" stroke="#000000" stroke-width="1.71785" stroke-miterlimit="8" fill="none" fill-rule="evenodd"/><path d="M1115 821C1115 805.536 1104.87 793 1089.84 793L1082 793" stroke="#000000" stroke-width="1.71785" stroke-miterlimit="8" fill="none" fill-rule="evenodd"/><path d="M1116 687C1116 671.616 1105.59 659 1090.09 659L1082 659" stroke="#000000" stroke-width="1.71785" stroke-miterlimit="8" fill="none" fill-rule="evenodd"/><path d="M870.5 1443.5 1081.5 1443.5 1081.5 1549.5 870.5 1549.5Z" stroke="#000000" stroke-width="4.90814" stroke-miterlimit="8" fill="#FFFFFF" fill-rule="evenodd"/><text font-family="Arial,Arial_MSFontService,sans-serif" font-weight="400" font-size="30" transform="matrix(1 0 0 1 912.694 1533)">Code "E"</text><path d="M870 1443.36 920.141 1493 1030.5 1493 1081 1443" stroke="#000000" stroke-width="1.71785" stroke-miterlimit="8" fill="none" fill-rule="evenodd"/><text font-family="Arial,Arial_MSFontService,sans-serif" font-weight="400" font-size="30" transform="matrix(1 0 0 1 949.529 1484)">If01</text><path d="M554.5 1285.5C554.5 1289.37 551.366 1292.5 547.5 1292.5 543.634 1292.5 540.5 1289.37 540.5 1285.5 540.5 1281.63 543.634 1278.5 547.5 1278.5 551.366 1278.5 554.5 1281.63 554.5 1285.5Z" stroke="#000000" stroke-width="1.22703" stroke-linecap="square" stroke-miterlimit="8" fill="#FFFFFF" fill-rule="evenodd"/><path d="M340.5 1259.5 340.433 1328.5 315.5 1328.5" stroke="#000000" stroke-width="4.90814" stroke-linecap="square" stroke-miterlimit="8" fill="none" fill-rule="evenodd"/><path d="M430.843 1213C440.32 1213 448 1219.25 448 1226.96L448 1269.04C448 1276.75 440.32 1283 430.843 1283L316.151 1283C306.68 1283 299 1276.75 299 1269.04L299 1226.96C299 1219.25 306.68 1213 316.151 1213L430.843 1213Z" stroke="#000000" stroke-width="1.71785" stroke-miterlimit="8" fill="#FFFFFF" fill-rule="evenodd"/><text font-family="Arial,Arial_MSFontService,sans-serif" font-weight="400" font-size="24" transform="matrix(1 0 0 1 312.694 1242)">Ministerieel</text><text font-family="Arial,Arial_MSFontService,sans-serif" font-weight="400" font-size="24" transform="matrix(1 0 0 1 312.694 1270)">besluit</text><path d="M416.5 1284C416.5 1288.14 413.366 1291.5 409.5 1291.5 405.634 1291.5 402.5 1288.14 402.5 1284 402.5 1279.86 405.634 1276.5 409.5 1276.5 413.366 1276.5 416.5 1279.86 416.5 1284Z" stroke="#000000" stroke-width="1.22703" stroke-linecap="square" stroke-miterlimit="8" fill="#FFFFFF" fill-rule="evenodd"/><text font-family="Arial,Arial_MSFontService,sans-serif" font-weight="400" font-size="49" transform="matrix(1 0 0 1 55.2252 1348)">4</text></g></svg>